<?xml version="1.0" encoding="UTF-8" standalone="no"?>
<svg
   xmlns:dc="http://purl.org/dc/elements/1.1/"
   xmlns:cc="http://creativecommons.org/ns#"
   xmlns:rdf="http://www.w3.org/1999/02/22-rdf-syntax-ns#"
   xmlns:svg="http://www.w3.org/2000/svg"
   xmlns="http://www.w3.org/2000/svg"
   xmlns:sodipodi="http://sodipodi.sourceforge.net/DTD/sodipodi-0.dtd"
   xmlns:inkscape="http://www.inkscape.org/namespaces/inkscape"
   id="logo"
   width="431.6922"
   height="498.47522"
   version="1.1"
   sodipodi:docname="BED.svg"
   inkscape:version="1.0.2-2 (e86c870879, 2021-01-15)"
   inkscape:export-filename="C:\Users\U057121\Downloads\BED.png"
   inkscape:export-xdpi="400"
   inkscape:export-ydpi="400">
  <metadata
     id="metadata95">
    <rdf:RDF>
      <cc:Work
         rdf:about="">
        <dc:format>image/svg+xml</dc:format>
        <dc:type
           rdf:resource="http://purl.org/dc/dcmitype/StillImage" />
        <dc:title></dc:title>
      </cc:Work>
    </rdf:RDF>
  </metadata>
  <defs
     id="defs93">
    <clipPath
       id="clip0">
      <rect
         x="173"
         y="270"
         width="218"
         height="156"
         id="rect2" />
    </clipPath>
  </defs>
  <sodipodi:namedview
     pagecolor="#ffffff"
     bordercolor="#666666"
     borderopacity="1"
     objecttolerance="10"
     gridtolerance="10"
     guidetolerance="10"
     inkscape:pageopacity="0"
     inkscape:pageshadow="2"
     inkscape:window-width="3840"
     inkscape:window-height="2050"
     id="namedview91"
     showgrid="false"
     inkscape:zoom="2.8284271"
     inkscape:cx="195.5459"
     inkscape:cy="245.15278"
     inkscape:window-x="-12"
     inkscape:window-y="-12"
     inkscape:window-maximized="1"
     inkscape:current-layer="logo"
     fit-margin-top="0"
     fit-margin-left="0"
     fit-margin-right="0"
     fit-margin-bottom="0" />
  <path
     d="M 423.69219,129.2376 215.8461,9.2376043 8,129.2376 v 240 l 207.8461,120 207.84609,-120 z"
     stroke="saddlebrown"
     stroke-width="16"
     fill="#ffffff"
     stroke-linecap="round"
     id="path2"
     style="stroke:#53676c;stroke-opacity:1;fill:#cbf5ff;fill-opacity:1" />
  <text
     x="215.9086"
     y="137.99951"
     text-anchor="middle"
     fill="#8b4513"
     stroke="#8b4513"
     font-size="64px"
     font-family="Geneva"
     id="text4"
     style="fill:#53676c;fill-opacity:1;stroke:#53676c;stroke-opacity:1">BED</text>
  <g
     id="g944"
     transform="matrix(0.59523809,0,0,0.52560646,63.465144,166.49187)">
    <circle
       style="fill:#53676c"
       cx="256"
       cy="256"
       r="256"
       id="circle2" />
    <circle
       style="fill:#00ccff"
       cx="256"
       cy="256"
       r="222.242"
       id="circle4" />
    <circle
       style="fill:#53676c;fill-opacity:1"
       cx="221.679"
       cy="425.354"
       r="8.4399996"
       id="circle6" />
    <circle
       style="fill:#53676c;fill-opacity:1"
       cx="202.549"
       cy="92.834999"
       r="8.4399996"
       id="circle8" />
    <circle
       style="fill:#53676c;fill-opacity:1"
       cx="256"
       cy="111.267"
       r="22.504999"
       id="circle12" />
    <path
       style="fill:#53676c;fill-opacity:1"
       d="m 168.716,395.899 c -4.673,0 -9.386,-1.449 -13.422,-4.455 -13.212,-9.837 -24.899,-21.524 -34.737,-34.736 -7.423,-9.969 -5.359,-24.069 4.61,-31.491 9.968,-7.425 24.067,-5.36 31.492,4.61 7.227,9.704 15.811,18.289 25.514,25.514 9.97,7.423 12.034,21.522 4.611,31.492 -4.416,5.933 -11.199,9.066 -18.068,9.066 z"
       id="path14" />
    <path
       style="fill:#53676c;fill-opacity:1"
       d="m 420.798,261.641 c 2.337,4.048 3.438,8.853 2.854,13.852 -1.914,16.36 -6.191,32.325 -12.715,47.451 -4.922,11.414 -18.164,16.675 -29.578,11.752 -11.414,-4.92 -16.675,-18.163 -11.754,-29.578 4.791,-11.111 7.933,-22.837 9.339,-34.853 1.444,-12.345 12.621,-21.183 24.968,-19.74 7.347,0.859 13.451,5.168 16.886,11.116 z"
       id="path16" />
    <path
       style="fill:#53676c;fill-opacity:1"
       d="m 343.284,116.101 c 4.673,0 9.386,1.449 13.422,4.455 13.212,9.837 24.899,21.524 34.737,34.736 7.423,9.969 5.359,24.069 -4.61,31.491 -9.968,7.425 -24.067,5.36 -31.492,-4.61 -7.227,-9.704 -15.811,-18.289 -25.514,-25.514 -9.97,-7.423 -12.034,-21.522 -4.611,-31.492 4.416,-5.933 11.2,-9.066 18.068,-9.066 z"
       id="path18" />
    <path
       style="fill:#53676c;fill-opacity:1"
       d="m 320.708,368.093 c -19.575,11.327 -41.95,17.313 -64.708,17.313 -4.661,0 -8.44,3.778 -8.44,8.44 0,4.662 3.779,8.44 8.44,8.44 25.722,0 51.02,-6.772 73.161,-19.583 4.035,-2.334 5.414,-7.497 3.078,-11.531 -2.333,-4.035 -7.499,-5.415 -11.531,-3.079 z"
       id="path22" />
    <path
       style="fill:#53676c;fill-opacity:1"
       d="m 191.292,143.907 c 4.034,-2.334 5.413,-7.497 3.079,-11.531 -2.334,-4.036 -7.5,-5.413 -11.532,-3.078 -45.106,26.097 -73.125,74.646 -73.125,126.701 0,4.662 3.779,8.44 8.44,8.44 4.661,0 8.44,-3.778 8.44,-8.44 -10e-4,-46.05 24.79,-89.001 64.698,-112.092 z"
       id="path24" />
    <path
       style="fill:#53676c;fill-opacity:1"
       d="m 140.624,128.689 c -3.296,-3.295 -8.64,-3.295 -11.935,0 -22.384,22.385 -38.513,50.291 -46.642,80.706 -1.204,4.503 1.471,9.128 5.974,10.333 0.73,0.195 1.463,0.288 2.184,0.288 3.728,0 7.14,-2.49 8.148,-6.262 7.364,-27.551 21.981,-52.838 42.27,-73.127 3.297,-3.298 3.297,-8.641 0.001,-11.938 z"
       id="path26" />
    <path
       style="fill:#53676c;fill-opacity:1"
       d="m 188.366,188.366 c 3.296,-3.297 3.296,-8.64 0,-11.936 -3.296,-3.295 -8.64,-3.295 -11.935,0 -21.254,21.254 -32.959,49.512 -32.959,79.569 0,4.662 3.779,8.44 8.44,8.44 4.661,0 8.44,-3.778 8.44,-8.44 0,-9.773 1.467,-19.319 4.277,-28.397 l 34.349,14.105 6.412,-15.613 -34.342,-14.102 c 4.47,-8.603 10.266,-16.572 17.318,-23.626 z"
       id="path28" />
    <path
       style="fill:#53676c;fill-opacity:1"
       d="m 335.568,323.634 c -3.295,-3.295 -8.639,-3.296 -11.935,10e-4 -3.928,3.928 -8.182,7.485 -12.692,10.655 l -23.717,-41.084 -14.617,8.44 23.724,41.096 c -5.004,2.333 -10.208,4.241 -15.563,5.671 -4.503,1.204 -7.178,5.83 -5.975,10.333 1.008,3.774 4.42,6.262 8.148,6.262 0.721,0 1.455,-0.093 2.184,-0.288 19.013,-5.082 36.454,-15.162 50.443,-29.151 3.297,-3.297 3.297,-8.641 0,-11.935 z"
       id="path30" />
    <circle
       style="fill:#53676c;fill-opacity:1"
       cx="256"
       cy="256"
       r="70.330002"
       id="circle34" />
  </g>
  <path
     d="m 84.132232,212.92013 c 0,-3.97774 3.22429,-7.20203 7.20203,-7.20203 h 4.24698 v 0 h 17.174078 32.87118 c 3.97774,0 7.20204,3.22429 7.20204,7.20203 v 18.00508 0 10.80305 0 c 0,3.97774 -3.2243,7.20203 -7.20204,7.20203 h -32.87118 l -1.53126,21.47092 -15.642818,-21.47092 h -4.24698 c -3.97774,0 -7.20203,-3.22429 -7.20203,-7.20203 v 0 -10.80305 0 z"
     stroke="#2f528f"
     stroke-width="1.47734"
     stroke-miterlimit="8"
     fill="#4472c4"
     fill-rule="evenodd"
     id="path7"
     style="fill:#66ff00;stroke:#53676c;stroke-opacity:1" />
  <text
     fill="#ffffff"
     font-family="Calibri, Calibri_MSFontService, sans-serif"
     font-weight="400"
     font-size="26.5921px"
     id="text9"
     x="99.320763"
     y="235.08023"
     style="fill:#53676c;fill-opacity:1;stroke-width:1.10801">DIC</text>
  <path
     d="m 229.33542,227.73757 c 0,-3.97773 3.2243,-7.20203 7.20203,-7.20203 h 15.32704 v 0 H 285.65864 357.31 c 3.97774,0 7.20203,3.2243 7.20203,7.20203 v 18.00509 0 10.80304 0 c 0,3.97774 -3.22429,7.20204 -7.20203,7.20204 h -71.65136 l 7.3915,11.07229 -41.18565,-11.07229 h -15.32704 c -3.97773,0 -7.20203,-3.2243 -7.20203,-7.20204 v 0 -10.80304 0 z"
     stroke="#2f528f"
     stroke-width="1.47734"
     stroke-miterlimit="8"
     fill="#4472c4"
     fill-rule="evenodd"
     id="path11"
     style="fill:#6fc936;stroke:#53676c;stroke-opacity:1;fill-opacity:1" />
  <text
     fill="#ffffff"
     font-family="Calibri, Calibri_MSFontService, sans-serif"
     font-weight="400"
     font-size="26.5921px"
     id="text13"
     x="243.06252"
     y="249.89767"
     style="fill:#53676c;fill-opacity:1;stroke-width:1.10801">SLC25A10</text>
  <path
     d="m 205.82061,344.43147 c 0,-3.97774 3.2243,-7.20203 7.20203,-7.20203 h 63.24825 v 0 h 30.19314 12.92709 c 3.97774,0 7.20204,3.22429 7.20204,7.20203 v 18.00508 0 10.80305 0 c 0,3.97774 -3.2243,7.20203 -7.20204,7.20203 h -12.92709 l -38.15969,17.21618 7.96655,-17.21618 h -63.24825 c -3.97773,0 -7.20203,-3.22429 -7.20203,-7.20203 v 0 -10.80305 0 z"
     stroke="#2f528f"
     stroke-width="1.47734"
     stroke-miterlimit="8"
     fill="#4472c4"
     fill-rule="evenodd"
     id="path15"
     style="fill:#ccff00;stroke:#53676c;stroke-opacity:1" />
  <text
     fill="#ffffff"
     font-family="Calibri, Calibri_MSFontService, sans-serif"
     font-weight="400"
     font-size="26.5921px"
     id="text17"
     x="220.63797"
     y="366.59158"
     style="fill:#53676c;fill-opacity:1;stroke-width:1.10801">Q9UBX3</text>
</svg>
