<?xml version="1.0" encoding="UTF-8" standalone="no"?>
<svg
   xmlns:dc="http://purl.org/dc/elements/1.1/"
   xmlns:cc="http://creativecommons.org/ns#"
   xmlns:rdf="http://www.w3.org/1999/02/22-rdf-syntax-ns#"
   xmlns:svg="http://www.w3.org/2000/svg"
   xmlns="http://www.w3.org/2000/svg"
   xmlns:sodipodi="http://sodipodi.sourceforge.net/DTD/sodipodi-0.dtd"
   xmlns:inkscape="http://www.inkscape.org/namespaces/inkscape"
   version="1.1"
   id="Layer_1"
   x="0px"
   y="0px"
   viewBox="0 0 512 512"
   style="enable-background:new 0 0 512 512;"
   xml:space="preserve"
   sodipodi:docname="cell-grey-blue.svg"
   inkscape:version="1.0.2-2 (e86c870879, 2021-01-15)"><metadata
   id="metadata71"><rdf:RDF><cc:Work
       rdf:about=""><dc:format>image/svg+xml</dc:format><dc:type
         rdf:resource="http://purl.org/dc/dcmitype/StillImage" /><dc:title></dc:title></cc:Work></rdf:RDF></metadata><defs
   id="defs69">
	
	

	
	
	

	
	
	
	
	
</defs><sodipodi:namedview
   pagecolor="#ffffff"
   bordercolor="#666666"
   borderopacity="1"
   objecttolerance="10"
   gridtolerance="10"
   guidetolerance="10"
   inkscape:pageopacity="0"
   inkscape:pageshadow="2"
   inkscape:window-width="3840"
   inkscape:window-height="2050"
   id="namedview67"
   showgrid="false"
   inkscape:zoom="1.96875"
   inkscape:cx="256"
   inkscape:cy="256"
   inkscape:window-x="-12"
   inkscape:window-y="-12"
   inkscape:window-maximized="1"
   inkscape:current-layer="Layer_1" />
<circle
   style="fill:#53676c"
   cx="256"
   cy="256"
   r="256"
   id="circle2" />
<circle
   style="fill:#00ccff"
   cx="256"
   cy="256"
   r="222.242"
   id="circle4" />
<circle
   style="fill:#53676c;fill-opacity:1"
   cx="221.679"
   cy="425.354"
   r="8.4399996"
   id="circle6" /><circle
   style="fill:#53676c;fill-opacity:1"
   cx="202.549"
   cy="92.834999"
   r="8.4399996"
   id="circle8" />
<circle
   style="fill:#53676c;fill-opacity:1"
   cx="256"
   cy="111.267"
   r="22.505"
   id="circle12" />
<path
   style="fill:#53676c;fill-opacity:1"
   d="m 168.716,395.899 c -4.673,0 -9.386,-1.449 -13.422,-4.455 -13.212,-9.837 -24.899,-21.524 -34.737,-34.736 -7.423,-9.969 -5.359,-24.069 4.61,-31.491 9.968,-7.425 24.067,-5.36 31.492,4.61 7.227,9.704 15.811,18.289 25.514,25.514 9.97,7.423 12.034,21.522 4.611,31.492 -4.416,5.933 -11.199,9.066 -18.068,9.066 z"
   id="path14" /><path
   style="fill:#53676c;fill-opacity:1"
   d="m 420.798,261.641 c 2.337,4.048 3.438,8.853 2.854,13.852 -1.914,16.36 -6.191,32.325 -12.715,47.451 -4.922,11.414 -18.164,16.675 -29.578,11.752 -11.414,-4.92 -16.675,-18.163 -11.754,-29.578 4.791,-11.111 7.933,-22.837 9.339,-34.853 1.444,-12.345 12.621,-21.183 24.968,-19.74 7.347,0.859 13.451,5.168 16.886,11.116 z"
   id="path16" /><path
   style="fill:#53676c;fill-opacity:1"
   d="m 343.284,116.101 c 4.673,0 9.386,1.449 13.422,4.455 13.212,9.837 24.899,21.524 34.737,34.736 7.423,9.969 5.359,24.069 -4.61,31.491 -9.968,7.425 -24.067,5.36 -31.492,-4.61 -7.227,-9.704 -15.811,-18.289 -25.514,-25.514 -9.97,-7.423 -12.034,-21.522 -4.611,-31.492 4.416,-5.933 11.2,-9.066 18.068,-9.066 z"
   id="path18" />
<path
   style="fill:#53676c;fill-opacity:1"
   d="m 320.708,368.093 c -19.575,11.327 -41.95,17.313 -64.708,17.313 -4.661,0 -8.44,3.778 -8.44,8.44 0,4.662 3.779,8.44 8.44,8.44 25.722,0 51.02,-6.772 73.161,-19.583 4.035,-2.334 5.414,-7.497 3.078,-11.531 -2.333,-4.035 -7.499,-5.415 -11.531,-3.079 z"
   id="path22" /><path
   style="fill:#53676c;fill-opacity:1"
   d="m 191.292,143.907 c 4.034,-2.334 5.413,-7.497 3.079,-11.531 -2.334,-4.036 -7.5,-5.413 -11.532,-3.078 -45.106,26.097 -73.125,74.646 -73.125,126.701 0,4.662 3.779,8.44 8.44,8.44 4.661,0 8.44,-3.778 8.44,-8.44 -10e-4,-46.05 24.79,-89.001 64.698,-112.092 z"
   id="path24" /><path
   style="fill:#53676c;fill-opacity:1"
   d="m 140.624,128.689 c -3.296,-3.295 -8.64,-3.295 -11.935,0 -22.384,22.385 -38.513,50.291 -46.642,80.706 -1.204,4.503 1.471,9.128 5.974,10.333 0.73,0.195 1.463,0.288 2.184,0.288 3.728,0 7.14,-2.49 8.148,-6.262 7.364,-27.551 21.981,-52.838 42.27,-73.127 3.297,-3.298 3.297,-8.641 0.001,-11.938 z"
   id="path26" /><path
   style="fill:#53676c;fill-opacity:1"
   d="m 188.366,188.366 c 3.296,-3.297 3.296,-8.64 0,-11.936 -3.296,-3.295 -8.64,-3.295 -11.935,0 -21.254,21.254 -32.959,49.512 -32.959,79.569 0,4.662 3.779,8.44 8.44,8.44 4.661,0 8.44,-3.778 8.44,-8.44 0,-9.773 1.467,-19.319 4.277,-28.397 l 34.349,14.105 6.412,-15.613 -34.342,-14.102 c 4.47,-8.603 10.266,-16.572 17.318,-23.626 z"
   id="path28" /><path
   style="fill:#53676c;fill-opacity:1"
   d="m 335.568,323.634 c -3.295,-3.295 -8.639,-3.296 -11.935,10e-4 -3.928,3.928 -8.182,7.485 -12.692,10.655 l -23.717,-41.084 -14.617,8.44 23.724,41.096 c -5.004,2.333 -10.208,4.241 -15.563,5.671 -4.503,1.204 -7.178,5.83 -5.975,10.333 1.008,3.774 4.42,6.262 8.148,6.262 0.721,0 1.455,-0.093 2.184,-0.288 19.013,-5.082 36.454,-15.162 50.443,-29.151 3.297,-3.297 3.297,-8.641 0,-11.935 z"
   id="path30" />
<circle
   style="fill:#53676c;fill-opacity:1"
   cx="256"
   cy="256"
   r="70.33"
   id="circle34" />
<g
   id="g36">
</g>
<g
   id="g38">
</g>
<g
   id="g40">
</g>
<g
   id="g42">
</g>
<g
   id="g44">
</g>
<g
   id="g46">
</g>
<g
   id="g48">
</g>
<g
   id="g50">
</g>
<g
   id="g52">
</g>
<g
   id="g54">
</g>
<g
   id="g56">
</g>
<g
   id="g58">
</g>
<g
   id="g60">
</g>
<g
   id="g62">
</g>
<g
   id="g64">
</g>
</svg>
