<?xml version="1.0" encoding="iso-8859-1"?>
<!-- Generator: Adobe Illustrator 19.0.0, SVG Export Plug-In . SVG Version: 6.00 Build 0)  -->
<svg version="1.1" id="Layer_1" xmlns="http://www.w3.org/2000/svg" xmlns:xlink="http://www.w3.org/1999/xlink" x="0px" y="0px"
	 viewBox="0 0 512 512" style="enable-background:new 0 0 512 512;" xml:space="preserve">
<circle style="fill:#F56E92;" cx="256" cy="256" r="256"/>
<circle style="fill:#FCCFDB;" cx="256" cy="256" r="222.242"/>
<g>
	<circle style="fill:#F99FB6;" cx="221.679" cy="425.354" r="8.44"/>
	<circle style="fill:#F99FB6;" cx="202.549" cy="92.835" r="8.44"/>
</g>
<circle style="fill:#FF9E46;" cx="256" cy="111.267" r="22.505"/>
<g>
	<path style="fill:#FF7226;" d="M168.716,395.899c-4.673,0-9.386-1.449-13.422-4.455c-13.212-9.837-24.899-21.524-34.737-34.736
		c-7.423-9.969-5.359-24.069,4.61-31.491c9.968-7.425,24.067-5.36,31.492,4.61c7.227,9.704,15.811,18.289,25.514,25.514
		c9.97,7.423,12.034,21.522,4.611,31.492C182.368,392.766,175.585,395.899,168.716,395.899z"/>
	<path style="fill:#FF7226;" d="M420.798,261.641c2.337,4.048,3.438,8.853,2.854,13.852c-1.914,16.36-6.191,32.325-12.715,47.451
		c-4.922,11.414-18.164,16.675-29.578,11.752c-11.414-4.92-16.675-18.163-11.754-29.578c4.791-11.111,7.933-22.837,9.339-34.853
		c1.444-12.345,12.621-21.183,24.968-19.74C411.259,251.384,417.363,255.693,420.798,261.641z"/>
	<path style="fill:#FF7226;" d="M343.284,116.101c4.673,0,9.386,1.449,13.422,4.455c13.212,9.837,24.899,21.524,34.737,34.736
		c7.423,9.969,5.359,24.069-4.61,31.491c-9.968,7.425-24.067,5.36-31.492-4.61c-7.227-9.704-15.811-18.289-25.514-25.514
		c-9.97-7.423-12.034-21.522-4.611-31.492C329.632,119.234,336.416,116.101,343.284,116.101z"/>
</g>
<g>
	<path style="fill:#F56E92;" d="M320.708,368.093c-19.575,11.327-41.95,17.313-64.708,17.313c-4.661,0-8.44,3.778-8.44,8.44
		s3.779,8.44,8.44,8.44c25.722,0,51.02-6.772,73.161-19.583c4.035-2.334,5.414-7.497,3.078-11.531
		C329.906,367.137,324.74,365.757,320.708,368.093z"/>
	<path style="fill:#F56E92;" d="M191.292,143.907c4.034-2.334,5.413-7.497,3.079-11.531c-2.334-4.036-7.5-5.413-11.532-3.078
		c-45.106,26.097-73.125,74.646-73.125,126.701c0,4.662,3.779,8.44,8.44,8.44c4.661,0,8.44-3.778,8.44-8.44
		C126.593,209.949,151.384,166.998,191.292,143.907z"/>
	<path style="fill:#F56E92;" d="M140.624,128.689c-3.296-3.295-8.64-3.295-11.935,0c-22.384,22.385-38.513,50.291-46.642,80.706
		c-1.204,4.503,1.471,9.128,5.974,10.333c0.73,0.195,1.463,0.288,2.184,0.288c3.728,0,7.14-2.49,8.148-6.262
		c7.364-27.551,21.981-52.838,42.27-73.127C143.92,137.329,143.92,131.986,140.624,128.689z"/>
	<path style="fill:#F56E92;" d="M188.366,188.366c3.296-3.297,3.296-8.64,0-11.936c-3.296-3.295-8.64-3.295-11.935,0
		c-21.254,21.254-32.959,49.512-32.959,79.569c0,4.662,3.779,8.44,8.44,8.44s8.44-3.778,8.44-8.44
		c0-9.773,1.467-19.319,4.277-28.397l34.349,14.105l6.412-15.613l-34.342-14.102C175.518,203.389,181.314,195.42,188.366,188.366z"
		/>
	<path style="fill:#F56E92;" d="M335.568,323.634c-3.295-3.295-8.639-3.296-11.935,0.001c-3.928,3.928-8.182,7.485-12.692,10.655
		l-23.717-41.084l-14.617,8.44l23.724,41.096c-5.004,2.333-10.208,4.241-15.563,5.671c-4.503,1.204-7.178,5.83-5.975,10.333
		c1.008,3.774,4.42,6.262,8.148,6.262c0.721,0,1.455-0.093,2.184-0.288c19.013-5.082,36.454-15.162,50.443-29.151
		C338.865,332.272,338.865,326.928,335.568,323.634z"/>
</g>
<circle style="fill:#F23E6D;" cx="256" cy="256" r="70.33"/>
<g>
</g>
<g>
</g>
<g>
</g>
<g>
</g>
<g>
</g>
<g>
</g>
<g>
</g>
<g>
</g>
<g>
</g>
<g>
</g>
<g>
</g>
<g>
</g>
<g>
</g>
<g>
</g>
<g>
</g>
</svg>
