<svg width="218" height="156" xmlns="http://www.w3.org/2000/svg" xmlns:xlink="http://www.w3.org/1999/xlink" overflow="hidden"><defs><clipPath id="clip0"><rect x="173" y="270" width="218" height="156"/></clipPath></defs><g clip-path="url(#clip0)" transform="translate(-173 -270)"><path d="M174.5 280C174.5 276.41 177.41 273.5 181 273.5L184.833 273.5 184.833 273.5 200.333 273.5 230 273.5C233.59 273.5 236.5 276.41 236.5 280L236.5 296.25 236.5 296.25 236.5 306 236.5 306C236.5 309.59 233.59 312.5 230 312.5L200.333 312.5 198.951 331.878 184.833 312.5 181 312.5C177.41 312.5 174.5 309.59 174.5 306L174.5 306 174.5 296.25 174.5 296.25Z" stroke="#2F528F" stroke-width="1.33333" stroke-miterlimit="8" fill="#4472C4" fill-rule="evenodd"/><text fill="#FFFFFF" font-family="Calibri,Calibri_MSFontService,sans-serif" font-weight="400" font-size="24" transform="translate(188.208 300)">DIC</text><path d="M267.5 303C267.5 299.41 270.41 296.5 274 296.5L287.833 296.5 287.833 296.5 318.333 296.5 383 296.5C386.59 296.5 389.5 299.41 389.5 303L389.5 319.25 389.5 319.25 389.5 329 389.5 329C389.5 332.59 386.59 335.5 383 335.5L318.333 335.5 325.004 345.493 287.833 335.5 274 335.5C270.41 335.5 267.5 332.59 267.5 329L267.5 329 267.5 319.25 267.5 319.25Z" stroke="#2F528F" stroke-width="1.33333" stroke-miterlimit="8" fill="#4472C4" fill-rule="evenodd"/><text fill="#FFFFFF" font-family="Calibri,Calibri_MSFontService,sans-serif" font-weight="400" font-size="24" transform="translate(279.889 323)">SLC25A10</text><path d="M213.5 376C213.5 372.41 216.41 369.5 220 369.5L277.083 369.5 277.083 369.5 304.333 369.5 316 369.5C319.59 369.5 322.5 372.41 322.5 376L322.5 392.25 322.5 392.25 322.5 402 322.5 402C322.5 405.59 319.59 408.5 316 408.5L304.333 408.5 269.893 424.038 277.083 408.5 220 408.5C216.41 408.5 213.5 405.59 213.5 402L213.5 402 213.5 392.25 213.5 392.25Z" stroke="#2F528F" stroke-width="1.33333" stroke-miterlimit="8" fill="#4472C4" fill-rule="evenodd"/><text fill="#FFFFFF" font-family="Calibri,Calibri_MSFontService,sans-serif" font-weight="400" font-size="24" transform="translate(226.873 396)">Q9UBX3</text></g></svg>